<mxfile host="app.diagrams.net" agent="Mozilla/5.0 (Windows NT 10.0; Win64; x64) AppleWebKit/537.36 (KHTML, like Gecko) Chrome/127.0.0.0 Safari/537.36 Edg/127.0.0.0" version="24.7.7">
  <diagram name="第 1 页" id="PGVtazwEPePPPrzDMP4s">
    <mxGraphModel dx="1293" dy="710" grid="1" gridSize="10" guides="1" tooltips="1" connect="1" arrows="1" fold="1" page="1" pageScale="1" pageWidth="827" pageHeight="1169" math="0" shadow="0">
      <root>
        <mxCell id="0" />
        <mxCell id="1" parent="0" />
        <mxCell id="nAQWwVh4fOrL5jOIdqd3-1" value="inOrder" style="rounded=0;whiteSpace=wrap;html=1;" vertex="1" parent="1">
          <mxGeometry x="80" y="150" width="130" height="70" as="geometry" />
        </mxCell>
        <mxCell id="nAQWwVh4fOrL5jOIdqd3-2" value="postOrder" style="rounded=0;whiteSpace=wrap;html=1;" vertex="1" parent="1">
          <mxGeometry x="280" y="150" width="134" height="70" as="geometry" />
        </mxCell>
        <mxCell id="nAQWwVh4fOrL5jOIdqd3-3" value="9,3,15,20,7" style="rounded=0;whiteSpace=wrap;html=1;" vertex="1" parent="1">
          <mxGeometry x="85" y="240" width="120" height="30" as="geometry" />
        </mxCell>
        <mxCell id="nAQWwVh4fOrL5jOIdqd3-4" value="9,15,7,20,3" style="rounded=0;whiteSpace=wrap;html=1;" vertex="1" parent="1">
          <mxGeometry x="287" y="240" width="120" height="30" as="geometry" />
        </mxCell>
        <mxCell id="nAQWwVh4fOrL5jOIdqd3-7" value="" style="edgeStyle=orthogonalEdgeStyle;rounded=0;orthogonalLoop=1;jettySize=auto;html=1;" edge="1" parent="1" source="nAQWwVh4fOrL5jOIdqd3-5" target="nAQWwVh4fOrL5jOIdqd3-6">
          <mxGeometry relative="1" as="geometry" />
        </mxCell>
        <mxCell id="nAQWwVh4fOrL5jOIdqd3-5" value="看数组是否为空,为空就返回空" style="rounded=0;whiteSpace=wrap;html=1;" vertex="1" parent="1">
          <mxGeometry x="590" y="140" width="170" height="60" as="geometry" />
        </mxCell>
        <mxCell id="nAQWwVh4fOrL5jOIdqd3-9" value="" style="edgeStyle=orthogonalEdgeStyle;rounded=0;orthogonalLoop=1;jettySize=auto;html=1;" edge="1" parent="1" source="nAQWwVh4fOrL5jOIdqd3-6" target="nAQWwVh4fOrL5jOIdqd3-8">
          <mxGeometry relative="1" as="geometry" />
        </mxCell>
        <mxCell id="nAQWwVh4fOrL5jOIdqd3-6" value="拿到postOrder最后一个结点,rootNode" style="whiteSpace=wrap;html=1;rounded=0;" vertex="1" parent="1">
          <mxGeometry x="570" y="240" width="210" height="60" as="geometry" />
        </mxCell>
        <mxCell id="nAQWwVh4fOrL5jOIdqd3-11" value="" style="edgeStyle=orthogonalEdgeStyle;rounded=0;orthogonalLoop=1;jettySize=auto;html=1;" edge="1" parent="1" source="nAQWwVh4fOrL5jOIdqd3-8" target="nAQWwVh4fOrL5jOIdqd3-10">
          <mxGeometry relative="1" as="geometry" />
        </mxCell>
        <mxCell id="nAQWwVh4fOrL5jOIdqd3-8" value="在inOrder中找到rootNode的位置x" style="whiteSpace=wrap;html=1;rounded=0;" vertex="1" parent="1">
          <mxGeometry x="580" y="350" width="190" height="60" as="geometry" />
        </mxCell>
        <mxCell id="nAQWwVh4fOrL5jOIdqd3-13" value="" style="edgeStyle=orthogonalEdgeStyle;rounded=0;orthogonalLoop=1;jettySize=auto;html=1;" edge="1" parent="1" source="nAQWwVh4fOrL5jOIdqd3-10" target="nAQWwVh4fOrL5jOIdqd3-12">
          <mxGeometry relative="1" as="geometry" />
        </mxCell>
        <mxCell id="nAQWwVh4fOrL5jOIdqd3-10" value="把inOrder分开[0,x);[x+1,size())" style="whiteSpace=wrap;html=1;rounded=0;" vertex="1" parent="1">
          <mxGeometry x="580" y="440" width="190" height="60" as="geometry" />
        </mxCell>
        <mxCell id="nAQWwVh4fOrL5jOIdqd3-19" value="" style="edgeStyle=orthogonalEdgeStyle;rounded=0;orthogonalLoop=1;jettySize=auto;html=1;" edge="1" parent="1" source="nAQWwVh4fOrL5jOIdqd3-12" target="nAQWwVh4fOrL5jOIdqd3-18">
          <mxGeometry relative="1" as="geometry" />
        </mxCell>
        <mxCell id="nAQWwVh4fOrL5jOIdqd3-12" value="把postOrder也按照inOrder的尺寸分割" style="whiteSpace=wrap;html=1;rounded=0;" vertex="1" parent="1">
          <mxGeometry x="560" y="525" width="230" height="60" as="geometry" />
        </mxCell>
        <mxCell id="nAQWwVh4fOrL5jOIdqd3-14" value="9" style="rounded=0;whiteSpace=wrap;html=1;" vertex="1" parent="1">
          <mxGeometry x="85" y="360" width="35" height="40" as="geometry" />
        </mxCell>
        <mxCell id="nAQWwVh4fOrL5jOIdqd3-15" value="15,20,7" style="rounded=0;whiteSpace=wrap;html=1;" vertex="1" parent="1">
          <mxGeometry x="127.5" y="360" width="102.5" height="40" as="geometry" />
        </mxCell>
        <mxCell id="nAQWwVh4fOrL5jOIdqd3-16" value="9" style="rounded=0;whiteSpace=wrap;html=1;" vertex="1" parent="1">
          <mxGeometry x="274.5" y="350" width="35" height="40" as="geometry" />
        </mxCell>
        <mxCell id="nAQWwVh4fOrL5jOIdqd3-17" value="15,7,20" style="rounded=0;whiteSpace=wrap;html=1;" vertex="1" parent="1">
          <mxGeometry x="317" y="350" width="102.5" height="40" as="geometry" />
        </mxCell>
        <mxCell id="nAQWwVh4fOrL5jOIdqd3-18" value="把inOrder和postOrder子数组递归执行上述逻辑" style="whiteSpace=wrap;html=1;rounded=0;" vertex="1" parent="1">
          <mxGeometry x="530" y="610" width="290" height="60" as="geometry" />
        </mxCell>
      </root>
    </mxGraphModel>
  </diagram>
</mxfile>
